<?xml version="1.0" standalone="no"?><!DOCTYPE svg PUBLIC "-//W3C//DTD SVG 1.1//EN" "http://www.w3.org/Graphics/SVG/1.1/DTD/svg11.dtd"><svg t="1701144753536" class="icon" viewBox="0 0 1024 1024" version="1.1" xmlns="http://www.w3.org/2000/svg" p-id="15165" width="60" height="60" xmlns:xlink="http://www.w3.org/1999/xlink"><path d="M0 0h1024v1024H0z" fill="#2D8BEA" p-id="15166"></path><path d="M321.024 672.256a36.608 36.608 0 0 1-36.608-34.816 36.864 36.864 0 0 1 73.472 0 36.608 36.608 0 0 1-36.608 35.072z m449.792-190.208a104.192 104.192 0 0 0-43.776-67.84l-8.704-7.168-7.168 8.704a94.208 94.208 0 0 0-17.664 64.512 91.648 91.648 0 0 0 15.36 43.776c-6.912 3.584-15.872 6.912-22.528 10.496a148.736 148.736 0 0 1-47.36 7.168H188.416l-1.792 10.24a198.4 198.4 0 0 0 15.872 99.584l6.912 12.288V665.6c41.984 69.888 116.992 102.4 198.912 102.4 156.928 0 285.952-67.84 347.136-214.528 39.936 1.792 80.384-8.704 99.328-46.848l5.12-8.704-8.448-5.376a107.264 107.264 0 0 0-80.128-8.704z m-224.768-27.648h-68.352v67.84h68.352v-68.096z m0-85.504h-68.352v67.84h68.352v-67.84z m0-87.296h-68.352v68.096h68.352V281.6z m83.456 172.8h-67.84v67.84h67.84v-68.096z m-252.928 0h-67.84v67.84h68.096v-68.096z m85.248 0H394.24v67.84h67.84v-68.096z m-169.472 0H225.024v67.84h68.096v-68.096zM460.8 368.896h-66.56v67.84h67.84v-67.84z m-85.76 0h-66.048v67.84h67.84v-67.84z" fill="#FFFFFF" p-id="15167"></path></svg>