<?xml version="1.0" standalone="no"?><!DOCTYPE svg PUBLIC "-//W3C//DTD SVG 1.1//EN" "http://www.w3.org/Graphics/SVG/1.1/DTD/svg11.dtd"><svg t="1701144099155" class="icon" viewBox="0 0 1024 1024" version="1.1" xmlns="http://www.w3.org/2000/svg" p-id="4516" width="60" height="60" xmlns:xlink="http://www.w3.org/1999/xlink"><path d="M1024 512a512 512 0 1 0-512 512 512 512 0 0 0 512-512z" fill="#2B2E3A" p-id="4517"></path><path d="M402 286.75c-104-18.916667-186.25 0.916667-219 57.666667-24.5 42.416667-17.5 98.583333 16.666667 158.333333a10.666667 10.666667 0 1 0 18.5-10.583333c-31-54.083333-37-102.583333-16.666667-137.333334 27.25-47.166667 100.583333-64.833333 196.75-47.333333l1.75 0.833333a10.666667 10.666667 0 0 0 2.083333-21.166666zM250 597A667.75 667.75 0 0 0 409.25 722.5C560.083333 809.666667 720.75 833.333333 800 778.916667a10.5 10.5 0 0 0 4.833333-8.916667 10.666667 10.666667 0 0 0-16.666666-8.333333c-71.5 48-223.75 25.833333-368.25-57.583334a644.416667 644.416667 0 0 1-153.916667-121.5 11.083333 11.083333 0 0 0-8.333333-3.5 10.666667 10.666667 0 0 0-10.666667 10.666667 11.083333 11.083333 0 0 0 2.75 7.25z" fill="#9FEAF9" p-id="4518"></path><path d="M778.5 563c68.083333-80.416667 91.666667-161.416667 59.166667-218-24.083333-41.666667-75-63.75-142.583334-64.583333a10.666667 10.666667 0 0 0 0 21.333333c60.833333 0.75 104.666667 19.75 124.333334 53.916667 27.166667 47 6 119.166667-57 193.583333a10.666667 10.666667 0 1 0 16.666666 13.75z m-191.666667-286.5a667.666667 667.666667 0 0 0-190.083333 75C241.666667 441.666667 139.666667 574.416667 153.833333 670.583333A10.666667 10.666667 0 0 0 175 667.5c-12.666667-85.416667 83.333333-211.083333 232.75-297.166667A643.666667 643.666667 0 0 1 591.666667 297.416667a10.666667 10.666667 0 0 0-2-21.166667 11.333333 11.333333 0 0 0-2.416667 0z" fill="#9FEAF9" p-id="4519"></path><path d="M351.083333 751c35.583333 99.416667 93.833333 160.666667 159.416667 160.666667 47.75 0 91.666667-32.583333 126.416667-89.916667a10.083333 10.083333 0 0 0 1.583333-5.583333 10.666667 10.666667 0 0 0-19.833333-5.416667c-31 51.583333-69.083333 79.583333-108.333334 79.583333-54.416667 0-106.416667-54.583333-139.333333-146.5a10.666667 10.666667 0 0 0-20.75 3.416667 9.666667 9.666667 0 0 0 0.666667 3.75z m345.333334-26.583333A667.916667 667.916667 0 0 0 725 526.666667C725 350 662.916667 197.666667 575 158.333333a11.166667 11.166667 0 0 0-4.083333-0.833333 10.666667 10.666667 0 0 0-4.583334 20.333333c78.416667 35.083333 137.166667 179.666667 137.166667 348.833334a649.333333 649.333333 0 0 1-27.416667 191.666666 11.166667 11.166667 0 0 0-0.5 3.333334 10.666667 10.666667 0 0 0 10.666667 10.666666 10.75 10.75 0 0 0 10.25-7.666666z m180.583333-16.666667A51.083333 51.083333 0 1 0 825.916667 758.333333a51 51 0 0 0 51.083333-51z m-21.333333 0a29.75 29.75 0 1 1-29.75-29.75 29.666667 29.666667 0 0 1 29.75 29.75z m-661.666667 64.583333a51.083333 51.083333 0 1 0-51.083333-51.083333 51.083333 51.083333 0 0 0 51.083333 51.083333z m0-21.333333a29.75 29.75 0 1 1 29.75-29.75 29.75 29.75 0 0 1-29.75 29.75z" fill="#9FEAF9" p-id="4520"></path><path d="M510.5 217.75A51.083333 51.083333 0 1 0 459.416667 166.666667a51 51 0 0 0 51.083333 51z m0-21.333333A29.75 29.75 0 1 1 540.166667 166.666667a29.666667 29.666667 0 0 1-29.666667 29.666666z m7.75 314.083333a36.916667 36.916667 0 0 1-43.916667-28.25 41 41 0 0 1-0.833333-7.833333 36.916667 36.916667 0 1 1 44.75 36.083333z" fill="#9FEAF9" p-id="4521"></path></svg>