<?xml version="1.0" standalone="no"?><!DOCTYPE svg PUBLIC "-//W3C//DTD SVG 1.1//EN" "http://www.w3.org/Graphics/SVG/1.1/DTD/svg11.dtd"><svg t="1701144875892" class="icon" viewBox="0 0 1024 1024" version="1.1" xmlns="http://www.w3.org/2000/svg" p-id="22585" width="60" height="60" xmlns:xlink="http://www.w3.org/1999/xlink"><path d="M1024.000768 536.32c0-86.4256-53.504-161.1264-132.9152-190.5152 3.3536-18.2784 5.0432-36.8128 5.0176-55.3984C896.103168 130.0992 766.541568 0 606.874368 0c-92.7744 0-179.712 44.4928-234.0608 120.8576a150.4768 150.4768 0 0 0-93.6192-31.8976c-84.4288 0-153.8048 68.8384-153.8048 154.4448 0 18.4576 3.328 36.9408 9.216 53.7344C54.323968 324.8384 0.000768 402.048 0.000768 487.6544a203.008 203.008 0 0 0 133.7344 191.3856 297.984 297.984 0 0 0-4.992 55.3728c0 159.488 129.536 289.5872 288.384 289.5872 93.6192 0 179.712-45.312 234.0608-120.8576a153.6512 153.6512 0 0 0 94.464 32.7168c84.4032 0 153.8048-68.8128 153.8048-154.4192 0-18.4832-3.3536-36.9408-9.216-53.7344 78.592-28.544 133.76-105.728 133.76-191.36z" fill="#FFFFFF" p-id="22586"></path><path d="M393.728768 453.7856l229.888 104.7552 232.448-202.7776c3.3536-16.8448 5.0688-33.9712 5.0176-51.1232 0-142.464-116.1984-258.0992-259.3536-258.0992-85.9136 0-165.888 41.9072-213.888 112.2816l-38.7584 199.4496 44.6464 95.5392z" fill="#F4BD19" p-id="22587"></path><path d="M167.936768 668.0832a263.68 263.68 0 0 0-5.0176 51.712c0 141.7472 116.6592 257.664 259.328 257.664a261.376 261.376 0 0 0 214.8864-112.5888l37.7856-198.4512-51.2-96.7424-229.9904-104.2176-225.792 202.624z" fill="#3CBEB1" p-id="22588"></path><path d="M147.559168 287.8976l164.5824 37.9136 36.9408-183.6032c-22.8608-17.2288-50.176-25.856-79.2064-25.856-71.2704 0-130.2272 56.9088-130.2272 127.5904 0 14.6432 2.6368 30.1568 7.9104 43.9552z" fill="#E9478C" p-id="22589"></path><path d="M140.109568 325.8112c-69.12 22.6304-116.8384 90.4704-116.8384 164.1728 0 72.0384 43.5968 136.5248 109.44 161.664l216.3712-199.3472-39.4752-86.272-169.4976-40.192z" fill="#2C458F" p-id="22590"></path><path d="M651.648768 880.896a130.944 130.944 0 0 0 78.6432 26.752c71.5776 0 130.816-56.9088 130.816-127.5904 0-15.5136-2.6624-30.1568-7.9616-43.9552l-165.2736-37.9136-36.224 182.7328z" fill="#95C63D" p-id="22591"></path><path d="M696.115968 657.9712l166.528 40.192c67.9168-23.424 114.816-90.4448 114.816-164.1472 0-72.0384-42.8544-135.68-107.52-161.664l-218.2912 197.6832 44.4672 87.936z" fill="#176655" p-id="22592"></path></svg>