<?xml version="1.0" standalone="no"?><!DOCTYPE svg PUBLIC "-//W3C//DTD SVG 1.1//EN" "http://www.w3.org/Graphics/SVG/1.1/DTD/svg11.dtd"><svg t="1701144445481" class="icon" viewBox="0 0 1024 1024" version="1.1" xmlns="http://www.w3.org/2000/svg" p-id="9494" width="60" height="60" xmlns:xlink="http://www.w3.org/1999/xlink"><path d="M0.900618 512.005815m42.592785-42.592785l425.92785-425.92785q42.592785-42.592785 85.18557 0l425.927849 425.92785q42.592785 42.592785 0 85.18557l-425.927849 425.927849q-42.592785 42.592785-85.18557 0l-425.92785-425.927849q-42.592785-42.592785 0-85.18557Z" fill="#DE4C36" p-id="9495"></path><path d="M348.031816 164.874617l42.592785-42.592785 340.742279 340.74228-42.592785 42.592785z" fill="#FFFFFF" p-id="9496"></path><path d="M527.058824 316.235294m-75.294118 0a75.294118 75.294118 0 1 0 150.588235 0 75.294118 75.294118 0 1 0-150.588235 0Z" fill="#FFFFFF" p-id="9497"></path><path d="M737.882353 512m-75.294118 0a75.294118 75.294118 0 1 0 150.588236 0 75.294118 75.294118 0 1 0-150.588236 0Z" fill="#FFFFFF" p-id="9498"></path><path d="M496.941176 361.411765h60.235295v301.17647h-60.235295z" fill="#FFFFFF" p-id="9499"></path><path d="M527.058824 707.764706m-75.294118 0a75.294118 75.294118 0 1 0 150.588235 0 75.294118 75.294118 0 1 0-150.588235 0Z" fill="#FFFFFF" p-id="9500"></path></svg>