<?xml version="1.0" standalone="no"?><!DOCTYPE svg PUBLIC "-//W3C//DTD SVG 1.1//EN" "http://www.w3.org/Graphics/SVG/1.1/DTD/svg11.dtd"><svg t="1701144130379" class="icon" viewBox="0 0 1092 1024" version="1.1" xmlns="http://www.w3.org/2000/svg" p-id="5773" width="63.984375" height="60" xmlns:xlink="http://www.w3.org/1999/xlink"><path d="M46.148267 12.014933h999.970133v999.970134H46.148267V12.014933z" fill="#F7DF1E" p-id="5774"></path><path d="M309.0432 847.6672l76.526933-46.2848c14.813867 26.146133 28.194133 48.3328 60.416 48.3328 30.9248 0 50.3808-12.0832 50.3808-59.118933v-319.488h93.934934v320.853333c0 97.348267-57.002667 141.653333-140.288 141.653333-75.093333 0-118.784-38.912-140.970667-85.947733M641.365333 837.632l76.458667-44.373333c20.138667 32.904533 46.353067 57.070933 92.637867 57.070933 38.912 0 63.761067-19.456 63.761066-46.2848 0-32.221867-25.463467-43.690667-68.4032-62.464l-23.552-10.0352c-67.7888-28.8768-112.776533-65.1264-112.776533-141.653333 0-70.4512 53.725867-124.177067 137.6256-124.177067 59.733333 0 102.741333 20.821333 133.597867 75.1616l-73.181867 47.035733c-16.110933-28.8768-33.518933-40.277333-60.416-40.277333-27.511467 0-44.987733 17.408-44.987733 40.277333 0 28.194133 17.476267 39.594667 57.7536 57.002667l23.483733 10.103467c79.872 34.269867 124.928 69.154133 124.928 147.6608 0 84.650667-66.491733 130.935467-155.784533 130.935466-87.2448 0-143.633067-41.642667-171.144534-95.982933" fill="#000000" p-id="5775"></path></svg>